<svg width="28" height="27" viewBox="0 0 28 27" fill="none" xmlns="http://www.w3.org/2000/svg">
<path d="M9.8 21.839H9.2C4.4 21.839 2 20.6426 2 14.6605V8.67846C2 3.89282 4.4 1.5 9.2 1.5H18.8C23.6 1.5 26 3.89282 26 8.67846V14.6605C26 19.4462 23.6 21.839 18.8 21.839H18.2C17.828 21.839 17.468 22.0184 17.24 22.3175L15.44 24.7104C14.648 25.7632 13.352 25.7632 12.56 24.7104L10.76 22.3175C10.568 22.0543 10.124 21.839 9.8 21.839Z" stroke="white" stroke-width="3" stroke-miterlimit="10" stroke-linecap="round" stroke-linejoin="round"/>
<path d="M18.7959 12.2677H18.8075" stroke="white" stroke-width="3" stroke-linecap="round" stroke-linejoin="round"/>
<path d="M13.9946 12.2677H14.0063" stroke="white" stroke-width="3" stroke-linecap="round" stroke-linejoin="round"/>
<path d="M9.1936 12.2677H9.20528" stroke="white" stroke-width="3" stroke-linecap="round" stroke-linejoin="round"/>
</svg>
